<svg xmlns="http://www.w3.org/2000/svg" xmlns:xlink="http://www.w3.org/1999/xlink" width="500" zoomAndPan="magnify" viewBox="0 0 375 374.999991" height="500" preserveAspectRatio="xMidYMid meet" version="1.0"><defs><clipPath id="fc9ab49db9"><path d="M 89.847656 191.519531 L 337.53125 191.519531 L 337.53125 233.960938 L 89.847656 233.960938 Z M 89.847656 191.519531 " clip-rule="nonzero"/></clipPath><clipPath id="2d317ee463"><path d="M 93.597656 191.519531 L 333.75 191.519531 C 334.746094 191.519531 335.699219 191.914062 336.402344 192.617188 C 337.105469 193.320312 337.5 194.277344 337.5 195.269531 L 337.5 230.210938 C 337.5 231.207031 337.105469 232.160156 336.402344 232.863281 C 335.699219 233.566406 334.746094 233.960938 333.75 233.960938 L 93.597656 233.960938 C 92.601562 233.960938 91.648438 233.566406 90.945312 232.863281 C 90.242188 232.160156 89.847656 231.207031 89.847656 230.210938 L 89.847656 195.269531 C 89.847656 194.277344 90.242188 193.320312 90.945312 192.617188 C 91.648438 191.914062 92.601562 191.519531 93.597656 191.519531 Z M 93.597656 191.519531 " clip-rule="nonzero"/></clipPath><clipPath id="23681cb733"><path d="M 37.5 141.039062 L 285.183594 141.039062 L 285.183594 183.480469 L 37.5 183.480469 Z M 37.5 141.039062 " clip-rule="nonzero"/></clipPath><clipPath id="a4f87cb937"><path d="M 41.25 141.039062 L 281.402344 141.039062 C 282.398438 141.039062 283.351562 141.433594 284.054688 142.136719 C 284.757812 142.839844 285.152344 143.792969 285.152344 144.789062 L 285.152344 179.730469 C 285.152344 180.722656 284.757812 181.679688 284.054688 182.382812 C 283.351562 183.085938 282.398438 183.480469 281.402344 183.480469 L 41.25 183.480469 C 40.253906 183.480469 39.300781 183.085938 38.597656 182.382812 C 37.894531 181.679688 37.5 180.722656 37.5 179.730469 L 37.5 144.789062 C 37.5 143.792969 37.894531 142.839844 38.597656 142.136719 C 39.300781 141.433594 40.253906 141.039062 41.25 141.039062 Z M 41.25 141.039062 " clip-rule="nonzero"/></clipPath><clipPath id="b64c0cfbe3"><path d="M 37.5 241.964844 L 285.183594 241.964844 L 285.183594 284.40625 L 37.5 284.40625 Z M 37.5 241.964844 " clip-rule="nonzero"/></clipPath><clipPath id="c4fe9b6cd9"><path d="M 41.25 241.964844 L 281.402344 241.964844 C 282.398438 241.964844 283.351562 242.359375 284.054688 243.0625 C 284.757812 243.765625 285.152344 244.71875 285.152344 245.714844 L 285.152344 280.65625 C 285.152344 281.652344 284.757812 282.605469 284.054688 283.308594 C 283.351562 284.011719 282.398438 284.40625 281.402344 284.40625 L 41.25 284.40625 C 40.253906 284.40625 39.300781 284.011719 38.597656 283.308594 C 37.894531 282.605469 37.5 281.652344 37.5 280.65625 L 37.5 245.714844 C 37.5 244.71875 37.894531 243.765625 38.597656 243.0625 C 39.300781 242.359375 40.253906 241.964844 41.25 241.964844 Z M 41.25 241.964844 " clip-rule="nonzero"/></clipPath><clipPath id="6c5517ac8b"><path d="M 89.847656 90.59375 L 337.53125 90.59375 L 337.53125 133.035156 L 89.847656 133.035156 Z M 89.847656 90.59375 " clip-rule="nonzero"/></clipPath><clipPath id="9e93820019"><path d="M 93.597656 90.59375 L 333.75 90.59375 C 334.746094 90.59375 335.699219 90.988281 336.402344 91.691406 C 337.105469 92.394531 337.5 93.347656 337.5 94.34375 L 337.5 129.285156 C 337.5 130.28125 337.105469 131.234375 336.402344 131.9375 C 335.699219 132.640625 334.746094 133.035156 333.75 133.035156 L 93.597656 133.035156 C 92.601562 133.035156 91.648438 132.640625 90.945312 131.9375 C 90.242188 131.234375 89.847656 130.28125 89.847656 129.285156 L 89.847656 94.34375 C 89.847656 93.347656 90.242188 92.394531 90.945312 91.691406 C 91.648438 90.988281 92.601562 90.59375 93.597656 90.59375 Z M 93.597656 90.59375 " clip-rule="nonzero"/></clipPath></defs><g clip-path="url(#fc9ab49db9)"><g clip-path="url(#2d317ee463)"><path fill="#5271ff" d="M 89.847656 191.519531 L 337.53125 191.519531 L 337.53125 233.960938 L 89.847656 233.960938 Z M 89.847656 191.519531 " fill-opacity="1" fill-rule="nonzero"/></g></g><g clip-path="url(#23681cb733)"><g clip-path="url(#a4f87cb937)"><path fill="#00bf63" d="M 37.5 141.039062 L 285.183594 141.039062 L 285.183594 183.480469 L 37.5 183.480469 Z M 37.5 141.039062 " fill-opacity="1" fill-rule="nonzero"/></g></g><g clip-path="url(#b64c0cfbe3)"><g clip-path="url(#c4fe9b6cd9)"><path fill="#ff3131" d="M 37.5 241.964844 L 285.183594 241.964844 L 285.183594 284.40625 L 37.5 284.40625 Z M 37.5 241.964844 " fill-opacity="1" fill-rule="nonzero"/></g></g><g clip-path="url(#6c5517ac8b)"><g clip-path="url(#9e93820019)"><path fill="#5271ff" d="M 89.847656 90.59375 L 337.53125 90.59375 L 337.53125 133.035156 L 89.847656 133.035156 Z M 89.847656 90.59375 " fill-opacity="1" fill-rule="nonzero"/></g></g></svg>